<?xml version="1.0" standalone="no"?><!DOCTYPE svg PUBLIC "-//W3C//DTD SVG 1.1//EN"
    "http://www.w3.org/Graphics/SVG/1.1/DTD/svg11.dtd">
<svg t="1667788811799" class="icon" viewBox="0 0 1024 1024" version="1.1"
    xmlns="http://www.w3.org/2000/svg" p-id="9527" xmlns:xlink="http://www.w3.org/1999/xlink"
    width="200" height="200">
    <path
        d="M793.6 51.2l-435.2 0c-112.9472 0-204.8 91.8528-204.8 204.8s91.8528 204.8 204.8 204.8l51.2 0 0 230.4c0 14.1312 11.4688 25.6 25.6 25.6s25.6-11.4688 25.6-25.6l0-588.8 153.6 0 0 588.8c0 14.1312 11.4688 25.6 25.6 25.6s25.6-11.4688 25.6-25.6l0-588.8 128 0c14.1312 0 25.6-11.4688 25.6-25.6s-11.4688-25.6-25.6-25.6zM409.6 409.6l-51.2 0c-84.6848 0-153.6-68.9152-153.6-153.6s68.9152-153.6 153.6-153.6l51.2 0 0 307.2z"
        p-id="9528" fill="#333333"></path>
    <path
        d="M742.4 870.4l-475.8016 0 58.6752-58.6752c9.984-9.984 9.984-26.2144 0-36.1984s-26.2144-9.984-36.1984 0l-102.4 102.4c-9.984 9.984-9.984 26.2144 0 36.1984l102.4 102.4c5.0176 5.0176 11.5712 7.4752 18.1248 7.4752s13.1072-2.5088 18.1248-7.4752c9.984-9.984 9.984-26.2144 0-36.1984l-58.6752-58.6752 475.8016 0c14.1312 0 25.6-11.4688 25.6-25.6s-11.4688-25.6-25.6-25.6z"
        p-id="9529" fill="#333333"></path>
</svg>