<?xml version="1.0" standalone="no"?><!DOCTYPE svg PUBLIC "-//W3C//DTD SVG 1.1//EN"
    "http://www.w3.org/Graphics/SVG/1.1/DTD/svg11.dtd">
<svg t="1667789613132" class="icon" viewBox="0 0 1469 1024" version="1.1"
    xmlns="http://www.w3.org/2000/svg" p-id="14047" xmlns:xlink="http://www.w3.org/1999/xlink"
    width="286.9140625" height="200">
    <path
        d="M1357.913043 1024h-1246.608695A111.304348 111.304348 0 0 1 0 912.695652v-801.391304A111.304348 111.304348 0 0 1 111.304348 0h1246.608695A111.304348 111.304348 0 0 1 1469.217391 111.304348v801.391304a111.304348 111.304348 0 0 1-111.304348 111.304348zM111.304348 44.521739A66.782609 66.782609 0 0 0 44.521739 111.304348v801.391304A66.782609 66.782609 0 0 0 111.304348 979.478261h1246.608695a66.782609 66.782609 0 0 0 66.782609-66.782609v-801.391304A66.782609 66.782609 0 0 0 1357.913043 44.521739z"
        p-id="14048" fill="#333333"></path>
    <path
        d="M136.681739 316.549565h49.419131v163.84h182.53913V316.549565h49.41913v391.346087H368.64v-184.765217h-182.53913v184.765217H136.681739zM495.526957 678.956522c122.88-107.297391 178.086957-185.210435 178.086956-252.438261a69.008696 69.008696 0 0 0-72.125217-77.467826 109.968696 109.968696 0 0 0-81.029566 44.521739l-28.493913-27.603478a150.038261 150.038261 0 0 1 115.311305-57.878261 107.297391 107.297391 0 0 1 113.975652 116.201739c0 77.913043-61.44 157.161739-153.154783 244.424348 20.034783 0 44.521739-4.006957 64.111305-4.006957h108.187826v44.521739h-244.869565zM1007.972174 379.770435a83.70087 83.70087 0 0 0-63.22087-30.274783C890.434783 349.495652 845.913043 390.90087 845.913043 512.445217a121.989565 121.989565 0 0 1 89.043479-47.63826c66.337391 0 108.187826 41.405217 108.187826 122.88a117.537391 117.537391 0 0 1-112.194783 127.332173c-75.241739 0-130.448696-64.556522-130.448695-194.114782 0-153.154783 68.563478-211.923478 144.695652-211.923478a121.09913 121.09913 0 0 1 89.043478 40.069565z m-12.466087 207.916522c0-52.535652-22.706087-86.372174-70.344348-86.372174A101.509565 101.509565 0 0 0 845.913043 551.624348c5.787826 81.029565 35.172174 125.551304 84.146087 125.551304 36.507826 0 65.446957-36.062609 65.446957-89.488695zM1080.097391 662.928696l24.041739-32.055653a127.777391 127.777391 0 0 0 96.166957 44.52174 85.036522 85.036522 0 0 0 83.255652-92.605218 79.248696 79.248696 0 0 0-81.029565-89.043478 109.078261 109.078261 0 0 0-65.446957 22.706087l-24.041739-16.918261 12.466087-182.984348h190.553044v41.850435h-150.038261L1157.565217 471.485217a117.982609 117.982609 0 0 1 178.086957 109.078261 126.886957 126.886957 0 0 1-128.222609 133.565218 166.066087 166.066087 0 0 1-127.332174-51.2z"
        p-id="14049" fill="#333333"></path>
</svg>